<svg xmlns="http://www.w3.org/2000/svg" xmlns:xlink="http://www.w3.org/1999/xlink" width="196.2807014960809" height="41.57894708663362" style=""><rect id="backgroundrect" width="100%" height="100%" x="0" y="0" fill="none" stroke="none" class="" style=""/>


<g class="currentLayer" style=""><title>Layer 1</title><g id="svg_1" class="">
	<g stroke-width="0" id="svg_2">
	</g>
    <path d="M16.30420311651155,10.8831017188419 C16.634797397868923,10.732090829600615 17.156655634534495,10.557479401066672 17.869791994733404,10.359274511986094 C18.578203251847363,10.165791146513257 19.296064715131223,10.069045924403824 20.023362216359843,10.069045924403824 C21.293777376080016,10.069045924403824 22.35167624277858,10.257814845014948 23.19704464823039,10.635345607491182 C24.042413053682182,11.012876369967408 24.554835252402995,11.562661338546732 24.734297076167678,12.284693434483117 C25.069609376497425,13.525831213667573 25.381310329627567,14.682031119134955 25.669399935558104,15.753278993393195 C25.95276443840369,16.824526867651443 26.231403838164326,17.85094504324728 26.505325218952578,18.832533520180718 C26.77924659974083,19.814121997114157 27.04371777435918,20.788624649262957 27.29874582692021,21.756055634119207 C27.55377387948124,22.72348661897547 27.804076828957307,23.73574730249412 28.049661759461003,24.792837684675177 L28.049661759461003,24.792837684675177 L28.276353361737478,24.792837684675177 C28.54554963944078,22.947642191033523 28.786409466859524,21.187398728601003 28.998932843993714,19.51209313988555 C29.211456221127904,17.836787551170097 29.407452363633624,16.189796946609007 29.586914187398293,14.571128404948333 C29.771101114247926,12.957174308149362 29.952929031611376,11.35737770342756 30.13239085537606,9.77173859078296 C30.311852679140728,8.186099478138345 30.493680596504163,6.57686690494711 30.677867523353797,4.944033792463209 C31.797157309593857,4.31166109385164 32.989654315144065,3.9954818232918825 34.2553443717793,3.9954818232918825 C35.37463415801935,3.9954818232918825 36.34279857077928,4.236159188604006 37.15983052594653,4.717513919228267 C37.976862481113784,5.203583094714226 38.38538200075368,6.0200031903291915 38.38538200075368,7.1667600485810965 C38.38538200075368,7.8321621762087545 38.31690696864105,8.775992621772332 38.17994273619064,9.998258464017901 C38.0429855878528,11.22052430626347 37.86115767048935,12.586715212965686 37.63446606821289,14.096852420362666 C37.40777446593643,15.606982549013622 37.14330329131806,17.192621661658222 36.841045460245255,18.853769758296494 C36.538794713285,20.514917854934765 36.22236865706992,22.100556967579365 35.891774375712544,23.610687096230322 C35.5564620753828,25.12081934850508 35.2164246719681,26.487017333953336 34.87166216546845,27.709281052575093 C34.522181639996404,28.93626346330616 34.19631246172399,29.880096740368174 33.89405463065117,30.54077946801189 C33.44067142609825,30.96550423032741 32.70156470921353,31.314722344635456 31.676727395884484,31.588433881723503 C30.647172063583056,31.857426231190004 29.58928028099706,31.991922405923248 28.503044964013938,31.991922405923248 C27.08149734670107,31.991922405923248 25.87956430320611,31.803155821298304 24.89723166530389,31.425622722835882 C23.914899027401674,31.04808955358601 23.31747456193976,30.512464483857514 23.10495118480557,29.818747372075507 C22.7129659839067,28.610641145530934 22.290278239124518,27.176015045751427 21.836895034571583,25.514869780611562 C21.383511830018648,23.853721683973305 20.89943316569496,22.027405206016567 20.38465195748796,20.035920346741356 C19.95960520321958,21.99909022186219 19.52039022380893,23.915073175889773 19.067007019255996,25.783862130078063 C18.61362381470306,27.657369776375674 18.207470388661918,29.243009596894897 17.848539657019984,30.54077946801189 C17.395156452467056,30.96550423032741 16.715081645637653,31.314722344635456 15.808315236531783,31.588433881723503 C14.901548827425913,31.857426231190004 13.902688954895233,31.991922405923248 12.811735618939728,31.991922405923248 C11.45158600528093,31.991922405923248 10.221309427388832,31.803155821298304 9.120912969376,31.425622722835882 C8.015791408278226,31.04808955358601 7.297934903873163,30.512464483857514 6.967342747749562,29.818747372075507 C6.69342349219508,29.276043273158578 6.398251898927178,28.46906622475909 6.081828676357112,27.39781622687704 C5.7654054537870465,26.32184682901105 5.439536275514627,25.09722376433464 5.104221141539846,23.72394703284779 C4.773629693827502,22.350670301360935 4.433592290412804,20.86413363325662 4.084108931295745,19.264337028534833 C3.7393485500298667,17.664540423813037 3.422925327459801,16.06237951791435 3.134837846763041,14.457868468330858 C2.8467503660662743,12.85807186360907 2.5822770662141465,11.29602621151109 2.341417238795401,9.77173859078296 C2.1005574113766556,8.247450970054828 1.9187316192469908,6.850573699275316 1.7959405708176561,5.581120935936497 C2.2209873250860284,5.1894326813830824 2.811329803210576,4.826052332237999 3.5669687136025563,4.490994045993318 C4.322607623994529,4.160650204610348 5.137280569675582,3.9954818232918825 6.0109875506457096,3.9954818232918825 C7.1586137871703315,3.9954818232918825 8.103159768618085,4.245595157073453 8.844632579101557,4.7458289033826375 C9.586105389585022,5.24134112608408 10.0465727067091,6.0789903810687775 10.226034530473775,7.258783747082795 C10.712479288396217,10.34039549630117 11.113907611352417,12.907623085879209 11.43033366756751,14.960459437070895 C11.746759723782603,17.013295788262575 12.004146785829818,18.695680123016615 12.202501937821722,20.007605362586986 C12.396139070841258,21.3242521257651 12.540180331750236,22.343591555322348 12.634632804661237,23.065623651258733 C12.72436725859987,23.79237727080286 12.81409462842592,24.368112922359657 12.903829082364545,24.792837684675177 L12.903829082364545,24.792837684675177 L13.130520684641013,24.792837684675177 C13.404442065429265,23.584729334506804 13.66182912747648,22.466287460409262 13.902688954895233,21.43751206238258 C14.143548782313978,20.408736664355885 14.391492722303859,19.375239742721448 14.646520774864882,18.337021297479275 C14.906273930510864,17.294088407375405 15.170745105129214,16.17564653327787 15.439941382832522,14.981695675186671 C15.713862763620781,13.787744817095472 16.001945285438737,12.42154683164722 16.30420311651155,10.8831017188419 zM53.800410955553446,32.35293845389144 C52.01522167173884,32.35293845389144 50.359898339578365,32.105182342540715 48.834448043184594,31.60967011983928 C47.30899774679082,31.109438709516297 45.97955067701534,30.36145147099242 44.846092665632995,29.36570762560561 C43.712634654250664,28.36996378021881 42.82003647028708,27.117025731388026 42.168298113742225,25.606893479113268 C41.521284860282336,24.09676335046231 41.19777469149611,22.329434063245174 41.19777469149611,20.30491269620785 C41.19777469149611,18.313427836932647 41.521284860282336,16.60037129559339 42.168298113742225,15.165743072190061 C42.82003647028708,13.731114848786731 43.674855081908774,12.551328561518758 44.73274686449477,11.62637005289406 C45.790638647080755,10.706133067877104 46.99966288725943,10.026573448172272 48.35981250091824,9.587691193779563 C49.719962114577044,9.153530462994603 51.11080718800659,8.9364465582291 52.53235480531947,8.9364465582291 C54.13336424639701,8.9364465582291 55.59033242656558,9.177123923541231 56.903252261712595,9.658478654165485 C58.22089719994456,10.139833384789746 59.35436229543947,10.805235512417383 60.3036262958596,11.65468503704843 C61.25762248347726,12.49941303807173 61.999095293960735,13.509316499159532 62.528037643197436,14.684388341565807 C63.05698707654673,15.864181707579817 63.32145825116507,17.147791962995825 63.32145825116507,18.535226186559854 C63.32145825116507,19.56400158458655 63.03336864523453,20.349742394870262 62.45719651748604,20.89244861741099 C61.88574240870993,21.43515483995172 61.08523768817115,21.782013395842725 60.05568235586972,21.933024285084016 L60.05568235586972,21.933024285084016 L48.855700380898014,23.610687096230322 C49.19101268122776,24.60643023374253 49.87108748805716,25.354417967778616 50.895924801386215,25.85464959046398 C51.92548013368764,26.35488050527475 53.10380182998301,26.60499667055474 54.43089697438488,26.60499667055474 C55.672982767933064,26.60499667055474 56.844220351657285,26.44454485772178 57.94461680967012,26.12364193993048 C59.0497383707679,25.807458422123105 59.94942066730262,25.43936292024172 60.6436636992743,25.019357557910126 C61.13010845719674,25.321383583640312 61.53862089272408,25.743748292026567 61.86921517408146,26.2864530988181 C62.199809455438825,26.82915648986041 62.36510305406122,27.402535626860967 62.36510305406122,28.006588386195943 C62.36510305406122,29.36570762560561 61.73225802574362,30.37796830912427 60.466560884995815,31.043370436751914 C59.49840355634845,31.557759339152085 58.409809229879144,31.904617895043103 57.20078498970045,32.08394610442494 C55.991760749521774,32.26327431380679 54.85830273813944,32.35293845389144 53.800410955553446,32.35293845389144 zM52.53235480531947,14.549892166832556 C51.80505730409085,14.549892166832556 51.1769302947456,14.670230849488618 50.647980861396334,14.910908214800749 C50.11903851215962,15.156307103720621 49.68926665480629,15.467771929418667 49.35867237344891,15.845302691894894 C49.02335298900661,16.22283345437112 48.77305003953052,16.645200994255788 48.60775644090813,17.11239823280286 C48.44246284228572,17.579595471349933 48.34328526628977,18.0538714559356 48.310223712920276,18.535226186559854 L48.310223712920276,18.535226186559854 L56.06732697831812,17.268130645651887 C55.9775925243795,16.66408000994072 55.64463923353594,16.060022295483506 55.06846710578745,15.455971659772331 C54.492294978038956,14.851921024061163 53.646919488474566,14.549892166832556 52.53235480531947,14.549892166832556 zM67.12562670186703,26.2864530988181 L67.12562670186703,2.1408503611807816 C67.42788453293984,2.0464694402482313 67.9119702813761,1.9473669957079451 68.57786977895066,1.8435430275599174 C69.24377636063778,1.7397190594118825 69.92385116746718,1.687810614710898 70.61809419943886,1.687810614710898 C71.28400078112598,1.687810614710898 71.88140399425018,1.7326403133732957 72.41037467993718,1.8223067894441414 C72.93934536562418,1.9119732655149875 73.38564445760596,2.0936563613414876 73.74927195588256,2.3673702344157164 C74.11289945415916,2.6363625838822173 74.38450433013665,3.004457377889004 74.56394490156362,3.4716546164360764 C74.74338547299058,3.943573378590891 74.83314117926692,4.557059982771506 74.83314117926692,5.3121285864699965 L74.83314117926692,5.3121285864699965 L74.83314117926692,9.750502352667183 C75.58880346723038,9.448473495438577 76.30663659406396,9.236111114280817 76.98671140089336,9.113415209193903 C77.66678620772277,8.995433748968694 78.41536438311508,8.9364465582291 79.23237508594461,8.9364465582291 C80.68228040587975,8.9364465582291 82.05893600182932,9.191281415618413 83.36241271491899,9.700951130397037 C84.66114307258603,10.215342368783404 85.80876930911063,10.963325147697262 86.80529142449285,11.9449136246307 C87.80181353987504,12.92650210156414 88.58815003527155,14.141682119025077 89.16430091068233,15.590467834505581 C89.73577627179617,17.04396799484779 90.02147853179022,18.721630805994096 90.02147853179022,20.62345626794449 C90.02147853179022,22.58662614306533 89.72869215922503,24.299682684404587 89.14304857296892,25.762625891962287 C88.55272947241585,27.230285668005493 87.72856381588946,28.445470640588653 86.67069328564119,29.40818010183716 C85.61282275539291,30.37560896306961 84.32110566917132,31.109438709516297 82.79568370922783,31.60967011983928 C81.26551539386168,32.105182342540715 79.57949660193046,32.35293845389144 77.73762733343416,32.35293845389144 C75.74465394379546,32.35293845389144 74.05155103929309,32.119339834617904 72.65831861992706,31.65214259607083 C71.2698325559837,31.18494535752376 70.09151085968834,30.60448818235922 69.12334644692841,29.910771070577198 C67.79153328355416,28.971657193499126 67.1256337859796,27.763550966954554 67.12562670186703,26.2864530988181 zM77.73762733343416,26.2864530988181 C79.12611339737752,26.286452390943495 80.2076448636134,25.809817768177766 80.98215089101609,24.856546399022506 C81.75198140412184,23.907994429851186 82.13686124011186,22.496966745740522 82.13686124011186,20.62345626794449 C82.13686124011186,18.721630805994096 81.7424886932765,17.301167153413992 80.95381444073153,16.362051152712112 C80.16981570248352,15.427656675617968 79.11194517223524,14.960459437070895 77.78013200886099,14.960459437070895 C77.17564468316564,14.960459437070895 76.65609586719827,15.019446627810481 76.22162724321028,15.13742808803569 C75.78241226379963,15.260123993122605 75.30543896438479,15.44181416769515 74.79063650384009,15.68249153300728 L74.79063650384009,15.68249153300728 L74.79063650384009,25.557342256843114 C75.12125203753517,25.76970393012627 75.52263785581593,25.944313235036418 75.99493564093382,26.081169463698927 C76.46248707062902,26.21802498448683 77.04338430146247,26.286452390943495 77.73762733343416,26.2864530988181 zM104.07635787293117,21.345488363880875 L102.17781570386578,20.71547996644619 C100.84600254049153,20.262440219976305 99.63695704797513,19.799964505036968 98.55075006744232,19.32804574288216 C97.45979673148679,18.860848504335088 96.52235611494791,18.29454882124773 95.73835737669987,17.62914669362008 C94.94968312415489,16.968459010854133 94.33804084476273,16.17564653327787 93.90357222077472,15.250688024653165 C93.46435724136407,14.330451039636202 93.24474975165873,13.207287641930932 93.24474975165873,11.881204910283373 C93.24474975165873,9.313977320705327 94.23418775446981,7.258783747082795 96.21299291896622,5.71561711066974 C98.19179808346266,4.17717199786442 100.96409469705242,3.4079459020887484 104.52974107748412,3.4079459020887484 C105.83321779057383,3.4079459020887484 107.0422632830902,3.4976123781595874 108.1568067139076,3.6769382515552422 C109.27609650014764,3.86098564855864 110.23719805267416,4.141778267671469 111.04004053036141,4.519309030147696 C111.83820749375172,4.896839792623922 112.46394715716048,5.378194523248176 112.91733036171343,5.963373222020465 C113.37071356626632,6.553266365654451 113.59740516854279,7.242269032574761 113.59740516854279,8.030367065289326 C113.59740516854279,8.81375065314218 113.41796459711583,9.483867225631535 113.05901261313619,10.040730940249453 C112.69538511485962,10.60230909972907 112.25617013544894,11.078949385491626 111.74136767490424,11.470637640045041 C111.07546109321711,11.04591287772952 110.18286290925352,10.675460861291882 109.06357312301347,10.359274511986094 C107.94902969219606,10.043088162680306 106.7258159745374,9.884998527400427 105.39400281116315,9.884998527400427 C104.03385319750436,9.884998527400427 103.03733108212214,10.073767448011566 102.40450730614225,10.451298210487792 C101.76693717473967,10.828828972964018 101.4481521090384,11.305469258726575 101.4481521090384,11.881204910283373 C101.4481521090384,12.334244656753256 101.64416950388181,12.70233945076005 102.03613345244298,12.985489292303726 C102.43284375642679,13.273360657455143 103.02316285697987,13.537631483313902 103.80716159522788,13.778308848626025 L103.80716159522788,13.778308848626025 L106.20867575684423,14.549892166832556 C109.05174265501967,15.455971659772331 111.23605792520485,16.612164486493683 112.76147988514833,18.018477725742635 C114.28690184509185,19.420069441383852 115.04964824562643,21.32897364937284 115.04964824562643,23.745183270963565 C115.04964824562643,26.312408736917803 114.03662014795344,28.388840672279912 112.01056395260753,29.974479784924526 C109.98925411268425,31.560118925884126 107.01392683280562,32.35293845389144 103.08458211297165,32.35293845389144 C101.69134969360562,32.35293845389144 100.39736569136124,32.23967851727397 99.20248842398712,32.013158644039024 C98.01235751203569,31.786638770804075 96.97099296407816,31.4562972654073 96.07839478011459,31.022134198636138 C95.185796596151,30.583251944243443 94.48921580703083,30.038188499271854 93.9885815716284,29.386943863721385 C93.49269369164864,28.740418628154856 93.24474975165873,27.99243089411877 93.24474975165873,27.142981369487728 C93.24474975165873,26.269935552811646 93.50211556136824,25.524307872704824 94.01691802191294,24.90609762129266 C94.526974127035,24.283167969896553 95.08428126300657,23.806534762880048 95.68876858870189,23.47619092149708 C96.53886209723865,24.141593049124722 97.57548028977351,24.714971478250675 98.79869400743218,25.196326208874922 C100.02190772509084,25.682399631608504 101.35839640276208,25.925436342975303 102.8083017226972,25.925437050849908 C104.29121900721384,25.925436342975303 105.33499215344557,25.698916469740354 105.93947947914091,25.245877431145075 C106.54396680483626,24.792837684675177 106.84624588824676,24.264288954211636 106.84624588824676,23.66023831850046 C106.84624588824676,23.056187682789286 106.60304830367954,22.59370488910392 106.11658229341941,22.272804094936433 C105.63486263858192,21.956617745630638 104.9547878317525,21.64751722110948 104.07635787293117,21.345488363880875 zM140.53120116401556,17.85566656685502 L140.53120116401556,31.588433881723503 C140.22899292173074,31.678097993493175 139.7519487811902,31.767762091105354 139.10021042464535,31.857426231190004 C138.45321842352317,31.947090371274655 137.7825654864134,31.991922405923248 137.08832245444174,31.991922405923248 C136.42241587275458,31.991922405923248 135.82501265963037,31.947090371274655 135.2960419739434,31.857426231190004 C134.7670712882564,31.767762091105354 134.32077219627462,31.586074294991477 133.95714469799802,31.312362786218415 C133.59351719972142,31.043370436751914 133.3148282111728,30.672916296690474 133.12121941460353,30.200999658159475 C132.92286426261163,29.733802419612402 132.82368668661567,29.12267020636422 132.82368668661567,28.36760443416415 L132.82368668661567,28.36760443416415 L132.82368668661567,18.30870631332491 C132.82368668661567,17.07228297900216 132.514323490634,16.203961517432234 131.8956679397964,15.703727771123056 C131.27701238895878,15.208215548421613 130.51426598842417,14.960459437070895 129.6074995793183,14.960459437070895 C129.00301225362296,14.960459437070895 128.42679053708645,15.035968421064553 127.87897611196024,15.186979310305837 C127.33583720113097,15.337990199547122 126.8990308199945,15.519680374119659 126.5684152862994,15.73204275527742 L126.5684152862994,15.73204275527742 L126.5684152862994,31.588433881723503 C126.2661362028889,31.678097993493175 125.78916290347405,31.767762091105354 125.13742454692922,31.857426231190004 C124.49043254580704,31.947090371274655 123.81744185154878,31.991922405923248 123.11845246415444,31.991922405923248 C122.45729223788999,31.991922405923248 121.86222678191425,31.947090371274655 121.33325609622727,31.857426231190004 C120.80428541054027,31.767762091105354 120.35798631855846,31.586074294991477 119.99435882028186,31.312362786218415 C119.63073132200526,31.043370436751914 119.34970457630817,30.672916296690474 119.15134942431627,30.200999658159475 C118.957740627747,29.733802419612402 118.86090080889954,29.12267020636422 118.86090080889954,28.36760443416415 L118.86090080889954,28.36760443416415 L118.86090080889954,2.0912991389106423 C119.19151634259461,2.0299476469941595 119.6826578671517,1.9473669957079451 120.33439622369656,1.8435430275599174 C120.98138822481874,1.7397190594118825 121.63787293678627,1.687810614710898 122.30377951847339,1.687810614710898 C122.96968610016052,1.687810614710898 123.5670893132847,1.7326403133732957 124.0960599989717,1.8223067894441414 C124.6250306846587,1.9119732655149875 125.07132977664048,2.0936563613414876 125.43495727491705,2.3673702344157164 C125.79858477319368,2.6363625838822173 126.0772737617423,3.004457377889004 126.27088255831154,3.4716546164360764 C126.46923771030345,3.943573378590891 126.5684152862994,4.557059982771506 126.5684152862994,5.3121285864699965 L126.5684152862994,5.3121285864699965 L126.5684152862994,9.750502352667183 C126.96037923486057,9.599491463425899 127.55785328911048,9.424880034891949 128.36069576679773,9.22667514581137 C129.15886273018802,9.033184701592504 130.04196820330628,8.9364465582291 131.01015386840393,8.9364465582291 C134.0043957288475,8.9364465582291 136.3397442790494,9.682072114712113 138.01634120126099,11.173330306424177 C139.6929381234726,12.66930294299793 140.53120116401556,14.896750722723567 140.53120116401556,17.85566656685502 zM168.09548317831974,20.62345626794449 C168.09548317831974,22.496966745740522 167.80978091832569,24.165186509671344 167.23830555721185,25.628129717229044 C166.66215468180107,27.091070801162914 165.85215725041698,28.322771904003318 164.80845494531098,29.323235149374057 C163.764752640205,30.31897899476087 162.5179488276844,31.074045050110797 161.06804350774928,31.588433881723503 C159.6181381878141,32.09810359650213 158.0006227644458,32.35293845389144 156.21542639651864,32.35293845389144 C154.4349763840141,32.35293845389144 152.8197987177943,32.0815865460079 151.36989339785916,31.538882659453364 C149.91531256362705,30.996178772898816 148.6685087511065,30.21987655022059 147.62948196029745,29.20997521275659 C146.58577965519146,28.195355183183267 145.77585306493305,26.963652664593667 145.19963134839657,25.514869780611562 C144.62822682840843,24.066084065131065 144.34245372728867,22.43561525382404 144.34245372728867,20.62345626794449 C144.34245372728867,18.839612266219305 144.62822682840843,17.223300946989482 145.19963134839657,15.774515231508971 C145.77585306493305,14.32572951602846 146.58577965519146,13.094027705313458 147.62948196029745,12.079409799363944 C148.6685087511065,11.069506338276142 149.91531256362705,10.293208575207913 151.36989339785916,9.750502352667183 C152.8197987177943,9.207796130126447 154.4349763840141,8.9364465582291 156.21542639651864,8.9364465582291 C158.0006227644458,8.9364465582291 159.6181381878141,9.214874876165041 161.06804350774928,9.77173859078296 C162.5179488276844,10.32860230540087 163.764752640205,11.11434311568459 164.80845494531098,12.128961021634098 C165.85215725041698,13.1388644827219 166.66215468180107,14.368201992260012 167.23830555721185,15.816987707740523 C167.80978091832569,17.27048786808274 168.09548317831974,18.872648773981417 168.09548317831974,20.62345626794449 zM152.22707101896702,20.62345626794449 C152.22707101896702,22.463930237978417 152.58361440467252,23.874957922089067 153.29677201720912,24.856546399022506 C154.0051832743231,25.838132752332143 154.99462127713414,26.328925575049652 156.2650151845166,26.328925575049652 C157.53540909189908,26.328925575049652 158.51067886956787,25.831053298418936 159.19075367639726,24.83531016090673 C159.8708284832267,23.839564191896116 160.21086588664136,22.43561525382404 160.21086588664136,20.62345626794449 C160.21086588664136,18.811297282064942 159.86140661350706,17.414427090031467 159.16241722611272,16.432838613098028 C158.46817419414103,15.451250136164589 157.4858911450268,14.960459437070895 156.21542639651864,14.960459437070895 C154.9497080034331,14.960459437070895 153.96742495431891,15.451250136164589 153.26843556692455,16.432838613098028 C152.57419253495289,17.414427090031467 152.22707101896702,18.811297282064942 152.22707101896702,20.62345626794449 zM181.97325970518222,8.9364465582291 C183.78679252339396,8.9364465582291 185.47047355817674,9.170045177502637 187.02423196840473,9.637242416049709 C188.58273673405546,10.104439654596781 189.92163401000087,10.821750226925424 191.04092379624092,11.789181211781681 C192.155538068184,12.756612196637931 193.03155942873113,13.971792214098862 193.66912956013368,15.434735421656555 C194.3020241772393,16.897678629214248 194.61840064466642,18.641407377138734 194.61840064466642,20.665928744176043 C194.61840064466642,22.600783635142506 194.3468666098146,24.292603938366 193.80372769898534,25.74138965384651 C193.2606596292818,27.1901725378286 192.49082911617603,28.40535751041176 191.49430700079384,29.386943863721385 C190.49310937111468,30.368530217031022 189.29114799116942,31.102359963477696 187.8884937020838,31.588433881723503 C186.48109305757546,32.069788612347764 184.91550417935363,32.310465977659895 183.19172706741824,32.310465977659895 C181.8929967097512,32.310465977659895 180.6839512172348,32.11462064699636 179.56466143099476,31.722930056456747 L179.56466143099476,31.722930056456747 L179.56466143099476,39.24055834944146 C179.26238234758424,39.3302248255123 178.78066269274674,39.429327270052596 178.1195024664823,39.53786568306232 C177.45359588479516,39.641689651210356 176.77352107796574,39.69359809591134 176.07927804599407,39.69359809591134 C175.41337146430695,39.69359809591134 174.81596825118277,39.64876839724894 174.28699756549577,39.5591019211781 C173.75802687980877,39.46943544510725 173.31172778782698,39.28775234928075 172.94810028955035,39.01403847620651 C172.58447279127378,38.74504612674002 172.3128679152963,38.37459198667857 172.13342734386933,37.90267534814757 C171.94924041701967,37.4354788174751 171.85714695359488,36.82434660422692 171.85714695359488,36.06928012415224 L171.85714695359488,36.06928012415224 L171.85714695359488,14.323372293597615 C171.85714695359488,13.506952197982642 172.03191201072488,12.84391437153188 172.3813712838592,12.334244656753256 C172.73083055699354,11.819853418366897 173.20787469753407,11.350298957388972 173.81236202322938,10.925574195073452 C174.74746488261982,10.321523559362277 175.9092593442867,9.837804527561133 177.2977454082301,9.474431257162095 C178.6909778275961,9.115772431624748 180.24948259324682,8.9364465582291 181.97325970518222,8.9364465582291 zM182.0582690560359,26.236901876547947 C185.17527858733732,26.236901876547947 186.73378335298804,24.379913192006 186.73378335298804,20.665928744176043 C186.73378335298804,18.735788298071284 186.3464949187238,17.301167153413992 185.57198889132113,16.362051152712112 C184.80215837821538,15.427656675617968 183.69236130282064,14.960459437070895 182.24245598288553,14.960459437070895 C181.66630510747473,14.960459437070895 181.15150264693003,15.028889675025965 180.69811944237708,15.165743072190061 C180.24473623782416,15.29788202449246 179.852772289263,15.455971659772331 179.52215675556792,15.640019056775728 L179.52215675556792,15.640019056775728 L179.52215675556792,25.606893479113268 C179.88578425384452,25.786221476132724 180.27781904353137,25.93723519687242 180.69811944237708,26.05993322558315 C181.12316619664549,26.17791256218456 181.5765494011984,26.236901876547947 182.0582690560359,26.236901876547947 z" stroke="none" fill="#BC2412" fill-rule="nonzero" id="svg_3"/>
</g></g></svg>